HIERARCHY
ROOT Hips
{
	OFFSET 0.000000 0.000000 0.000000
	CHANNELS 6 Xposition Yposition Zposition Zrotation Yrotation Xrotation 
	JOINT LowerBack
	{
		OFFSET 0.000000 0.000000 0.000000
		CHANNELS 3 Zrotation Yrotation Xrotation
		JOINT Spine
		{
			OFFSET 0.028270 2.035590 -0.193380
			CHANNELS 3 Zrotation Yrotation Xrotation
			JOINT Spine1
			{
				OFFSET 0.056720 2.048850 -0.042750
				CHANNELS 3 Zrotation Yrotation Xrotation
				JOINT Neck
				{
					OFFSET 0.000000 0.000000 0.000000
					CHANNELS 3 Zrotation Yrotation Xrotation
					JOINT Neck1
					{
						OFFSET -0.054170 1.746240 0.172020
						CHANNELS 3 Zrotation Yrotation Xrotation
						JOINT Head
						{
							OFFSET 0.104070 1.761360 -0.123970
							CHANNELS 3 Zrotation Yrotation Xrotation
							End Site
							{
								OFFSET 0.000000 0.000000 0.000000
							}
						}
					}
				}
				JOINT LeftShoulder
				{
					OFFSET 0.000000 0.000000 0.000000
					CHANNELS 3 Zrotation Yrotation Xrotation
					JOINT LeftArm
					{
						OFFSET 3.362410 1.200890 -0.311210
						CHANNELS 3 Zrotation Yrotation Xrotation
						JOINT LeftForeArm
						{
							OFFSET 4.983000 -0.000000 -0.000000
							CHANNELS 3 Zrotation Yrotation Xrotation
							JOINT LeftHand
							{
								OFFSET 3.483560 -0.000000 -0.000000
								CHANNELS 3 Zrotation Yrotation Xrotation
								JOINT LeftFingerBase
								{
									OFFSET 0.000000 0.000000 0.000000
									CHANNELS 3 Zrotation Yrotation Xrotation
									JOINT LeftHandIndex1
									{
										OFFSET 0.715260 -0.000000 -0.000000
										CHANNELS 3 Zrotation Yrotation Xrotation
										End Site
										{
											OFFSET 0.000000 0.000000 0.000000
										}
									}
								}
								JOINT LThumb
								{
									OFFSET 0.000000 0.000000 0.000000
									CHANNELS 3 Zrotation Yrotation Xrotation
									End Site
									{
										OFFSET 0.000000 0.000000 0.000000
									}
								}
							}
						}
					}
				}
				JOINT RightShoulder
				{
					OFFSET 0.000000 0.000000 0.000000
					CHANNELS 3 Zrotation Yrotation Xrotation
					JOINT RightArm
					{
						OFFSET -3.136600 1.374050 -0.404650
						CHANNELS 3 Zrotation Yrotation Xrotation
						JOINT RightForeArm
						{
							OFFSET -5.241900 -0.000000 -0.000000
							CHANNELS 3 Zrotation Yrotation Xrotation
							JOINT RightHand
							{
								OFFSET -3.444170 -0.000000 -0.000000
								CHANNELS 3 Zrotation Yrotation Xrotation
								JOINT RightFingerBase
								{
									OFFSET 0.000000 0.000000 0.000000
									CHANNELS 3 Zrotation Yrotation Xrotation
									JOINT RightHandIndex1
									{
										OFFSET -0.622530 -0.000000 -0.000000
										CHANNELS 3 Zrotation Yrotation Xrotation
										End Site
										{
											OFFSET 0.000000 0.000000 0.000000
										}
									}
								}
								JOINT RThumb
								{
									OFFSET 0.000000 0.000000 0.000000
									CHANNELS 3 Zrotation Yrotation Xrotation
									End Site
									{
										OFFSET 0.000000 0.000000 0.000000
									}
								}
							}
						}
					}
				}
			}
		}
	}
}
}
MOTION
Frames: 17
Frame Time: 0.008333
2.429139 17.172151 0.928337 -118.077866 -81.712208 135.239259 5.510497 0.063362 -12.611629 -0.111616 -1.167698 -5.073091 -8.385784 -1.149261 1.325271 14.034899 -10.913651 -8.285956 -4.318847 -0.356524 -0.092037 0.000000 0.000000 0.000000 0.584992 12.746441 0.897938 -60.074979 7.832486 -7.065387 -2.321897 -41.529547 0.022702 19.177019 -6.641001 -1.123199 -0.103645 -0.025973 -0.000000 0.000000 0.000000 0.000000 0.000000 0.000000 0.000000 22.188157 -4.870391 -1.619766 66.474364 7.746277 7.584329 0.919695 70.527331 -0.015753 -10.037406 20.683079 -1.898953 0.139980 -0.434110 0.000000 0.000000 0.000000 0.000000 0.000000 0.000000 0.000000 
2.177427 17.165482 0.889457 -122.863778 -81.752584 140.018628 4.918569 0.484042 -12.615162 -0.288103 -0.675965 -5.095402 -8.431070 -0.659558 1.258364 14.013331 -10.411172 -8.192892 -4.304240 -0.355806 -0.072879 0.000000 0.000000 0.000000 0.501613 13.434789 0.987631 -58.252362 8.152560 -8.458851 -2.412580 -40.759233 0.025350 19.080399 -6.357677 -1.068110 -0.106148 -0.035004 -0.000000 0.000000 0.000000 0.000000 0.000000 0.000000 0.000000 22.075980 -4.017509 -1.642156 66.953453 8.330793 10.505587 0.914694 71.190490 -0.016749 -9.648523 20.766791 -1.834595 0.137366 -0.455253 -0.000000 0.000000 0.000000 0.000000 0.000000 0.000000 0.000000 
1.925465 17.152224 0.853368 -127.743407 -81.689638 144.844158 4.390655 0.898419 -12.570488 -0.448585 -0.195356 -5.110668 -8.463784 -0.180511 1.186870 13.944422 -9.866197 -8.091206 -4.278910 -0.354026 -0.051499 0.000000 0.000000 0.000000 0.357669 14.162896 1.072461 -56.392449 8.429813 -9.864975 -2.499122 -40.108233 0.027808 18.999067 -6.191435 -1.034321 -0.109669 -0.042562 -0.000000 0.000000 0.000000 0.000000 0.000000 0.000000 0.000000 21.859895 -3.138703 -1.661563 67.424602 9.022175 13.418482 0.907962 71.872152 -0.017829 -9.250586 20.851323 -1.768057 0.134383 -0.478065 -0.000000 0.000000 0.000000 0.000000 0.000000 0.000000 0.000000 
1.673152 17.132303 0.820509 -132.295801 -81.531518 149.304765 3.947530 1.299688 -12.486100 -0.587348 0.264026 -5.118166 -8.481748 0.278321 1.119819 13.826301 -9.278220 -7.987121 -4.241432 -0.351037 -0.029492 0.000000 0.000000 0.000000 0.166989 14.958674 1.152781 -54.528497 8.616497 -11.297420 -2.581641 -39.522544 0.030062 18.935649 -6.144619 -1.022134 -0.113994 -0.048592 -0.000000 0.000000 0.000000 0.000000 0.000000 0.000000 0.000000 21.532296 -2.237548 -1.682885 67.888977 9.816454 16.312951 0.897660 72.575389 -0.019008 -8.850863 20.924262 -1.699544 0.130962 -0.502058 -0.000000 0.000000 0.000000 0.000000 0.000000 0.000000 0.000000 
1.420433 17.105792 0.790969 -136.242622 -81.273466 153.108006 3.615768 1.690379 -12.346680 -0.695908 0.699986 -5.115178 -8.485033 0.713994 1.056932 13.657200 -8.660573 -7.882823 -4.191067 -0.346796 -0.007247 0.000000 0.000000 0.000000 -0.073688 15.800861 1.229143 -52.674142 8.743908 -12.768937 -2.656459 -39.012066 0.032106 18.888458 -6.193190 -1.027248 -0.118707 -0.053270 -0.000000 0.000000 0.000000 0.000000 0.000000 0.000000 0.000000 21.088139 -1.330576 -1.704646 68.355313 10.721809 19.184844 0.883967 73.288463 -0.020174 -8.450486 20.980206 -1.628956 0.127194 -0.526639 0.000000 0.000000 0.000000 0.000000 0.000000 0.000000 0.000000 
1.167376 17.072992 0.764741 -139.450523 -80.952673 156.144249 3.394657 2.063447 -12.175621 -0.776737 1.106699 -5.104386 -8.474053 1.121702 1.003349 13.439183 -8.023064 -7.782200 -4.128320 -0.341399 0.014376 0.000000 0.000000 0.000000 -0.355849 16.683326 1.300797 -50.847791 8.811223 -14.288157 -2.721743 -38.560171 0.033881 18.857116 -6.309926 -1.044765 -0.123580 -0.056581 0.000000 0.000000 0.000000 0.000000 0.000000 0.000000 0.000000 20.532363 -0.429489 -1.727031 68.827463 11.737088 22.023782 0.866833 74.010553 -0.021235 -8.054717 21.014954 -1.556997 0.123241 -0.551214 0.000000 0.000000 0.000000 0.000000 0.000000 0.000000 0.000000 
0.913935 17.034260 0.741737 -141.919411 -80.581734 158.416781 3.286362 2.421048 -11.974646 -0.829837 1.486302 -5.085077 -8.449688 1.503563 0.963431 13.176724 -7.378957 -7.690458 -4.053688 -0.334882 0.034019 0.000000 0.000000 0.000000 -0.668549 17.605755 1.366603 -49.070456 8.807036 -15.862811 -2.775961 -38.143708 0.035291 18.842951 -6.465924 -1.070086 -0.128373 -0.058436 -0.000000 0.000000 0.000000 0.000000 0.000000 0.000000 0.000000 19.873311 0.452127 -1.750008 69.305517 12.863529 24.819664 0.846530 74.741124 -0.022114 -7.673197 21.027876 -1.485962 0.119372 -0.575229 0.000000 0.000000 0.000000 0.000000 0.000000 0.000000 0.000000 
0.660158 16.990096 0.721867 -143.739340 -80.167912 160.010041 3.287385 2.766825 -11.739433 -0.856435 1.843309 -5.056591 -8.413435 1.863674 0.936819 12.874252 -6.737090 -7.608857 -3.968636 -0.327393 0.051361 0.000000 0.000000 0.000000 -1.003434 18.553254 1.426182 -47.359429 8.743220 -17.497351 -2.816655 -37.757881 0.036234 18.850122 -6.627148 -1.097711 -0.132807 -0.058812 -0.000000 0.000000 0.000000 0.000000 0.000000 0.000000 0.000000 19.121711 1.306879 -1.772433 69.788402 14.091763 27.553798 0.823614 75.481031 -0.022741 -7.311527 21.022637 -1.417148 0.115808 -0.598226 -0.000000 0.000000 0.000000 0.000000 0.000000 0.000000 0.000000 
0.405947 16.941062 0.705082 -145.036494 -79.716206 161.037410 3.388407 3.104205 -11.457399 -0.858850 2.183204 -5.016783 -8.366706 2.207049 0.922535 12.536950 -6.105443 -7.537968 -3.874839 -0.319080 0.066159 0.000000 0.000000 0.000000 -1.351429 19.512261 1.479248 -45.731929 8.626583 -19.194311 -2.841697 -37.397117 0.036612 18.885377 -6.765353 -1.123441 -0.136618 -0.057684 -0.000000 0.000000 0.000000 0.000000 0.000000 0.000000 0.000000 18.290228 2.128480 -1.793587 70.273136 15.408805 30.205114 0.798717 76.231376 -0.023071 -6.974129 21.006891 -1.352353 0.112728 -0.619858 -0.000000 0.000000 0.000000 0.000000 0.000000 0.000000 0.000000 
0.151513 16.887867 0.691311 -145.966334 -79.233436 161.629763 3.573190 3.434901 -11.108794 -0.840508 2.510994 -4.962461 -8.310729 2.538178 0.917856 12.170400 -5.490044 -7.476994 -3.774282 -0.310115 0.078447 0.000000 0.000000 0.000000 -1.703317 20.467403 1.525964 -44.204170 8.465967 -20.953536 -2.849083 -37.060830 0.036340 18.956377 -6.860350 -1.144375 -0.139533 -0.055073 -0.000000 0.000000 0.000000 0.000000 0.000000 0.000000 0.000000 17.393420 2.913231 -1.813257 70.754048 16.796647 32.747894 0.772426 76.992409 -0.023086 -6.662036 20.991448 -1.292375 0.110203 -0.639916 0.000000 0.000000 0.000000 0.000000 0.000000 0.000000 0.000000 
-0.103260 16.831274 0.680412 -146.681621 -78.733372 161.918613 3.817363 3.757553 -10.675505 -0.806120 2.829588 -4.890484 -8.246525 2.859508 0.921112 11.782000 -4.897722 -7.425533 -3.669074 -0.300667 0.088104 0.000000 0.000000 0.000000 -2.048888 21.407246 1.566420 -42.789856 8.262349 -22.771304 -2.837563 -36.747766 0.035382 19.071250 -6.904492 -1.159715 -0.141313 -0.051041 -0.000000 0.000000 0.000000 0.000000 0.000000 0.000000 0.000000 16.449604 3.655578 -1.831840 71.223176 18.235133 35.158824 0.745319 77.762074 -0.022779 -6.374044 20.989005 -1.237811 0.108238 -0.658302 -0.000000 0.000000 0.000000 0.000000 0.000000 0.000000 0.000000 
-0.358713 16.772248 0.672148 -147.305091 -78.240491 162.022309 4.092593 4.067767 -10.159518 -0.761099 3.138235 -4.802922 -8.175907 3.169585 0.925212 11.379533 -4.326538 -7.377000 -3.562203 -0.291085 0.096897 0.000000 0.000000 0.000000 -2.382976 22.298557 1.602402 -41.490302 8.058385 -24.631101 -2.805708 -36.486709 0.033778 19.235983 -6.890281 -1.168357 -0.141776 -0.045898 -0.000000 0.000000 0.000000 0.000000 0.000000 0.000000 0.000000 15.478282 4.359438 -1.849662 71.673179 19.682315 37.405582 0.718005 78.539568 -0.022153 -6.100204 21.012377 -1.187261 0.106577 -0.675091 -0.000000 0.000000 0.000000 0.000000 0.000000 0.000000 0.000000 
-0.615358 16.711898 0.666022 -147.920717 -77.792194 162.040643 4.362842 4.357411 -9.581211 -0.712483 3.432150 -4.702687 -8.100761 3.463554 0.933205 10.977175 -3.787786 -7.333384 -3.456269 -0.281587 0.104211 0.000000 0.000000 0.000000 -2.694035 23.140576 1.633287 -40.306554 7.837504 -26.520305 -2.755012 -36.274243 0.031600 19.452487 -6.835058 -1.173199 -0.140920 -0.039780 0.000000 0.000000 0.000000 0.000000 0.000000 0.000000 0.000000 14.510768 5.011868 -1.867777 72.092301 21.116680 39.475320 0.691133 79.317092 -0.021216 -5.836000 21.071742 -1.140319 0.105134 -0.690401 -0.000000 0.000000 0.000000 0.000000 0.000000 0.000000 0.000000 
-0.873953 16.651360 0.661588 -148.508170 -77.420474 162.001826 4.609493 4.621514 -8.996454 -0.664747 3.705358 -4.598942 -8.024429 3.735605 0.948803 10.590203 -3.291446 -7.295778 -3.353744 -0.272438 0.109977 0.000000 0.000000 0.000000 -2.973462 23.932846 1.657421 -39.231346 7.591156 -28.417863 -2.687612 -36.114233 0.028968 19.721099 -6.759745 -1.177542 -0.138926 -0.032896 0.000000 0.000000 0.000000 0.000000 0.000000 0.000000 0.000000 13.577526 5.601941 -1.887404 72.471788 22.508115 41.359245 0.665428 80.085841 -0.019966 -5.575378 21.173713 -1.095785 0.103764 -0.704413 -0.000000 0.000000 0.000000 0.000000 0.000000 0.000000 0.000000 
-1.134672 16.591806 0.657595 -149.118562 -77.162925 161.976465 4.797331 4.851253 -8.429883 -0.625782 3.950774 -4.499882 -7.951919 3.978354 0.957510 10.232506 -2.824770 -7.249572 -3.259366 -0.264213 0.118329 0.000000 0.000000 0.000000 -3.220105 24.610371 1.681068 -38.237313 7.414631 -30.280699 -2.604806 -36.071373 0.026071 20.030093 -6.664175 -1.180283 -0.136034 -0.025778 -0.000000 0.000000 0.000000 0.000000 0.000000 0.000000 0.000000 12.711559 6.145201 -1.904513 72.808434 23.803250 43.027020 0.641443 80.833983 -0.018414 -5.295724 21.318859 -1.049054 0.101882 -0.717539 -0.000000 0.000000 0.000000 0.000000 0.000000 0.000000 0.000000 
-1.398973 16.534133 0.653615 -149.620270 -77.014275 161.898706 4.941993 5.052927 -7.950607 -0.595103 4.168484 -4.414142 -7.888091 4.192894 0.974065 9.921737 -2.411448 -7.205507 -3.173686 -0.256910 0.126645 0.000000 0.000000 0.000000 -3.421982 25.218391 1.697385 -37.317866 7.236604 -32.090756 -2.511311 -36.109605 0.023025 20.372347 -6.587115 -1.188021 -0.132779 -0.018365 -0.000000 0.000000 0.000000 0.000000 0.000000 0.000000 0.000000 11.941868 6.618412 -1.920454 73.098745 24.995428 44.501449 0.620016 81.544747 -0.016568 -5.001199 21.501558 -1.000222 0.099628 -0.729804 -0.000000 0.000000 0.000000 0.000000 0.000000 0.000000 0.000000 
-1.667265 16.479273 0.648323 -150.071580 -76.981033 161.826948 5.020658 5.225742 -7.567510 -0.579102 4.358519 -4.345600 -7.838526 4.379324 0.990623 9.672592 -2.049474 -7.156279 -3.099848 -0.250858 0.136954 0.000000 0.000000 0.000000 -3.574770 25.726365 1.709234 -36.447130 7.105679 -33.809143 -2.410033 -36.258011 0.019957 20.732446 -6.533214 -1.200654 -0.129589 -0.010902 -0.000000 0.000000 0.000000 0.000000 0.000000 0.000000 0.000000 11.299931 7.028719 -1.930644 73.345781 26.055594 45.780818 0.601973 82.198435 -0.014448 -4.681456 21.709595 -0.946186 0.096752 -0.741415 -0.000000 0.000000 0.000000 0.000000 0.000000 0.000000 0.000000 
